<svg xmlns="http://www.w3.org/2000/svg" xml:space="preserve" width="2000" height="1500" data-id="lg_DvJvB9h0h6eR8GMCKH" data-version="1" viewBox="0 0 2000 1500"><path fill="#d83131" stroke="transparent" d="M0 0h2000v1500H0z"/><g data-padding="20"><g transform="translate(-992.397 -729.392)scale(1.90519)"><rect width="374.654" height="559.35" x="457.948" y="96.662" fill="none" rx="0" ry="0" transform="translate(400.5 400.17)"/><path fill="#e8e8ed" d="M1053.935 990.417h-80.19q-22.77 0-22.77-22.77v-238.1h-67.81q-22.77 0-22.77-22.77v-59.89q0-12.38 6.93-18.32l63.85-53.95q5.45-4.46 15.84-4.46h261.36q22.77 0 22.77 22.77v59.9q0 12.37-6.93 18.31l-64.35 53.46q-4.95 4.95-15.34 4.95h-3.96v184.14q0 12.38-6.93 18.32l-64.35 53.46q-4.95 4.95-15.35 4.95m-16.33-58.91h80.19q17.82 0 17.82-17.82v-243.04h72.76q17.82 0 17.82-17.82v-59.9q0-17.82-17.82-17.82h-261.36q-17.82 0-17.82 17.82v59.9q0 17.82 17.82 17.82h72.77v243.04q0 17.82 17.82 17.82m42.57-44.55h-4.95v-262.35h-101.48v-4.95h207.9v4.95h-101.47Z"/></g><path fill="transparent" stroke="transparent" stroke-width="2.013" d="M622.652 187.5h754.696v1125H622.652z"/></g></svg>